<svg xmlns="http://www.w3.org/2000/svg" xmlns:xlink="http://www.w3.org/1999/xlink">

<symbol id="twitter" viewBox="0 0 42 42">
	<path d="M28.9441 16.9264C28.9568 17.104 28.9568 17.2817 28.9568 17.4594C28.9568 22.8781 24.8325 29.1218 17.2944 29.1218C14.9721 29.1218 12.8147 28.4492 11 27.2817C11.33 27.3198 11.6472 27.3325 11.9898 27.3325C13.9061 27.3325 15.67 26.6853 17.0787 25.5812C15.2766 25.5431 13.7665 24.3629 13.2462 22.7386C13.5 22.7766 13.7538 22.802 14.0203 22.802C14.3883 22.802 14.7564 22.7512 15.099 22.6624C13.2208 22.2817 11.8121 20.632 11.8121 18.6396V18.5888C12.3578 18.8934 12.9924 19.0838 13.6649 19.1091C12.5609 18.3731 11.8375 17.1167 11.8375 15.6954C11.8375 14.934 12.0405 14.236 12.3959 13.6269C14.4137 16.1142 17.4467 17.7385 20.8477 17.9162C20.7842 17.6117 20.7461 17.2944 20.7461 16.9772C20.7461 14.7183 22.5736 12.8782 24.8451 12.8782C26.0253 12.8782 27.0913 13.3731 27.84 14.1726C28.7664 13.9949 29.6547 13.6523 30.4416 13.1827C30.137 14.1345 29.4898 14.934 28.6395 15.4416C29.4644 15.3528 30.2639 15.1243 30.9999 14.8071C30.4416 15.6193 29.7436 16.3426 28.9441 16.9264Z" />
</symbol>
<symbol id="facebook" viewBox="0 0 42 42">
	<path d="M25.6539 22.25L26.2094 18.6305H22.7364V16.2816C22.7364 15.2914 23.2215 14.3262 24.777 14.3262H26.3559V11.2445C26.3559 11.2445 24.9231 11 23.5531 11C20.693 11 18.8235 12.7336 18.8235 15.8719V18.6305H15.6442V22.25H18.8235V31H22.7364V22.25H25.6539Z" />
</symbol>
<symbol id="instagram" viewBox="0 0 42 42">
	<path d="M21.9977 26.1277C19.1594 26.1277 16.87 23.8383 16.87 21C16.87 18.1616 19.1594 15.8722 21.9977 15.8722C24.8361 15.8722 27.1255 18.1616 27.1255 21C27.1255 23.8383 24.8361 26.1277 21.9977 26.1277ZM21.9977 17.6663C20.1635 17.6663 18.664 19.1613 18.664 21C18.664 22.8387 20.1591 24.3337 21.9977 24.3337C23.8364 24.3337 25.3315 22.8387 25.3315 21C25.3315 19.1613 23.832 17.6663 21.9977 17.6663ZM28.5313 26.3375C28.5313 25.6725 27.9957 25.1415 27.3352 25.1415C26.6703 25.1415 26.1392 25.677 26.1392 26.3375C26.1392 26.998 26.6748 27.5335 27.3352 27.5335C27.9957 27.5335 28.5313 26.998 28.5313 26.3375ZM31.9275 25.1236C31.8516 26.7257 31.4856 28.1449 30.3119 29.3142C29.1427 30.4834 27.7235 30.8494 26.1214 30.9297C24.4701 31.0234 19.5209 31.0234 17.8697 30.9297C16.272 30.8538 14.8528 30.4879 13.6791 29.3186C12.5054 28.1494 12.1439 26.7302 12.0636 25.1281C11.9699 23.4768 11.9699 18.5276 12.0636 16.8764C12.1394 15.2742 12.5054 13.8551 13.6791 12.6858C14.8528 11.5166 16.2675 11.1506 17.8697 11.0703C19.5209 10.9766 24.4701 10.9766 26.1214 11.0703C27.7235 11.1461 29.1427 11.5121 30.3119 12.6858C31.4812 13.8551 31.8471 15.2742 31.9275 16.8764C32.0212 18.5276 32.0212 23.4724 31.9275 25.1236ZM29.7942 15.1046C29.4461 14.2299 28.7723 13.556 27.8931 13.2035C26.5766 12.6813 23.4526 12.8018 21.9977 12.8018C20.5429 12.8018 17.4145 12.6858 16.1024 13.2035C15.2277 13.5516 14.5538 14.2255 14.2013 15.1046C13.6791 16.4212 13.7996 19.5451 13.7996 21C13.7996 22.4549 13.6836 25.5833 14.2013 26.8953C14.5494 27.77 15.2232 28.4439 16.1024 28.7965C17.4189 29.3186 20.5429 29.1981 21.9977 29.1981C23.4526 29.1981 26.581 29.3142 27.8931 28.7965C28.7678 28.4484 29.4417 27.7745 29.7942 26.8953C30.3164 25.5788 30.1959 22.4549 30.1959 21C30.1959 19.5451 30.3164 16.4167 29.7942 15.1046Z" />
</symbol>
<symbol id="linkedin" viewBox="0 0 42 42">
	<path d="M16.4766 31H12.3301V17.647H16.4766V31ZM14.4011 15.8256C13.0752 15.8256 11.9998 14.7273 11.9998 13.4014C11.9998 12.7645 12.2528 12.1537 12.7031 11.7034C13.1535 11.253 13.7643 11 14.4011 11C15.038 11 15.6488 11.253 16.0992 11.7034C16.5495 12.1537 16.8025 12.7645 16.8025 13.4014C16.8025 14.7273 15.7266 15.8256 14.4011 15.8256ZM31.9957 31H27.8581V24.4999C27.8581 22.9507 27.8269 20.9641 25.7023 20.9641C23.5464 20.9641 23.2161 22.6471 23.2161 24.3882V31H19.074V17.647H23.0509V19.4685H23.1089C23.6625 18.4194 25.0148 17.3122 27.0322 17.3122C31.2288 17.3122 32.0002 20.0756 32.0002 23.665V31H31.9957Z" />
</symbol>
<symbol id="telegram" viewBox="0 0 42 42">
	<path d="M30.5497 14.4566L27.6523 28.0342C27.4337 28.9924 26.8637 29.2309 26.0536 28.7795L21.6389 25.5469L19.5087 27.5827C19.273 27.817 19.0758 28.0129 18.6215 28.0129L18.9387 23.5452L27.1208 16.1985C27.4766 15.8833 27.0437 15.7087 26.5679 16.0239L16.4527 22.3527L12.0981 20.9984C11.1508 20.7045 11.1337 20.0571 12.2952 19.6057L29.3282 13.0852C30.1168 12.7913 30.8069 13.2598 30.5497 14.4566Z" />
</symbol>
</svg>
